<svg xmlns="http://www.w3.org/2000/svg" xmlns:xlink="http://www.w3.org/1999/xlink" width="1080" zoomAndPan="magnify" viewBox="0 0 810 809.999993" height="1080" preserveAspectRatio="xMidYMid meet" version="1.0"><defs><g/></defs><g fill="#000000" fill-opacity="1"><g transform="translate(400.08034, 598.827272)"><g><path d="M -49.390625 -9.28125 L -39.578125 11.984375 C -38.035156 12.097656 -36.457031 12.3125 -34.84375 12.625 L -19.15625 15.5625 L -15.671875 -2.953125 L -9.5 -1.78125 L -20.484375 56.59375 L -42.34375 52.484375 C -49.789062 51.078125 -55.289062 48.195312 -58.84375 43.84375 C -62.40625 39.488281 -63.601562 34.203125 -62.4375 27.984375 C -61.570312 23.421875 -59.691406 19.785156 -56.796875 17.078125 C -53.898438 14.367188 -50.179688 12.726562 -45.640625 12.15625 L -56.140625 -10.5625 Z M -35.671875 17.890625 C -41.441406 16.804688 -46.097656 17.257812 -49.640625 19.25 C -53.191406 21.238281 -55.398438 24.539062 -56.265625 29.15625 C -57.148438 33.875 -56.300781 37.785156 -53.71875 40.890625 C -51.132812 43.992188 -46.957031 46.085938 -41.1875 47.171875 L -25.65625 50.09375 L -20.140625 20.8125 Z M -35.671875 17.890625 "/></g></g></g><g fill="#000000" fill-opacity="1"><g transform="translate(346.617168, 589.027573)"><g><path d="M -51.5 -1.671875 L -17.71875 14.265625 C -16.039062 9.921875 -16.046875 5.769531 -17.734375 1.8125 C -19.429688 -2.144531 -22.507812 -5.175781 -26.96875 -7.28125 C -29.46875 -8.46875 -31.984375 -9.109375 -34.515625 -9.203125 C -37.046875 -9.296875 -39.484375 -8.835938 -41.828125 -7.828125 L -43.234375 -12.796875 C -40.421875 -14.097656 -37.40625 -14.675781 -34.1875 -14.53125 C -30.96875 -14.382812 -27.75 -13.550781 -24.53125 -12.03125 C -20.382812 -10.082031 -17.128906 -7.46875 -14.765625 -4.1875 C -12.410156 -0.914062 -11.070312 2.695312 -10.75 6.65625 C -10.425781 10.613281 -11.195312 14.566406 -13.0625 18.515625 C -14.914062 22.453125 -17.4375 25.578125 -20.625 27.890625 C -23.8125 30.210938 -27.3125 31.535156 -31.125 31.859375 C -34.945312 32.191406 -38.726562 31.476562 -42.46875 29.71875 C -46.195312 27.957031 -49.132812 25.503906 -51.28125 22.359375 C -53.425781 19.210938 -54.609375 15.691406 -54.828125 11.796875 C -55.054688 7.898438 -54.234375 3.957031 -52.359375 -0.03125 Z M -40.25 25.03125 C -36.351562 26.863281 -32.503906 27.160156 -28.703125 25.921875 C -24.898438 24.679688 -21.878906 22.148438 -19.640625 18.328125 L -48.265625 4.8125 C -49.785156 8.976562 -49.8125 12.921875 -48.34375 16.640625 C -46.882812 20.367188 -44.1875 23.164062 -40.25 25.03125 Z M -40.25 25.03125 "/></g></g></g><g fill="#000000" fill-opacity="1"><g transform="translate(305.670298, 570.433916)"><g><path d="M -46.765625 20.328125 C -51.335938 16.703125 -53.9375 12.78125 -54.5625 8.5625 C -55.1875 4.34375 -53.722656 0 -50.171875 -4.46875 L -32.984375 -26.15625 L -28.46875 -22.5625 L -32.78125 -17.109375 C -30.289062 -18.085938 -27.609375 -18.265625 -24.734375 -17.640625 C -21.859375 -17.023438 -19.003906 -15.597656 -16.171875 -13.359375 C -12.265625 -10.265625 -9.894531 -6.875 -9.0625 -3.1875 C -8.238281 0.5 -9.035156 3.875 -11.453125 6.9375 C -13.816406 9.90625 -16.789062 11.445312 -20.375 11.5625 C -23.96875 11.675781 -28.113281 9.875 -32.8125 6.15625 L -43.921875 -2.65625 L -45.609375 -0.53125 C -48.003906 2.488281 -48.984375 5.453125 -48.546875 8.359375 C -48.109375 11.265625 -46.269531 14.003906 -43.03125 16.578125 C -40.8125 18.328125 -38.390625 19.644531 -35.765625 20.53125 C -33.148438 21.425781 -30.601562 21.804688 -28.125 21.671875 L -28.796875 26.890625 C -31.765625 26.984375 -34.8125 26.457031 -37.9375 25.3125 C -41.070312 24.164062 -44.015625 22.503906 -46.765625 20.328125 Z M -19.84375 -10.203125 C -22.5 -12.316406 -25.265625 -13.519531 -28.140625 -13.8125 C -31.023438 -14.113281 -33.84375 -13.476562 -36.59375 -11.90625 L -41.125 -6.1875 L -30.140625 2.515625 C -24.160156 7.253906 -19.519531 7.546875 -16.21875 3.390625 C -14.601562 1.347656 -14.101562 -0.875 -14.71875 -3.28125 C -15.34375 -5.6875 -17.050781 -7.992188 -19.84375 -10.203125 Z M -19.84375 -10.203125 "/></g></g></g><g fill="#000000" fill-opacity="1"><g transform="translate(270.879547, 543.554815)"><g><path d="M -16.5625 -21.203125 C -13.789062 -17.765625 -12.0625 -14.085938 -11.375 -10.171875 C -10.6875 -6.253906 -11.070312 -2.4375 -12.53125 1.28125 C -14 5 -16.429688 8.226562 -19.828125 10.96875 C -23.210938 13.707031 -26.867188 15.390625 -30.796875 16.015625 C -34.734375 16.648438 -38.539062 16.21875 -42.21875 14.71875 C -45.90625 13.21875 -49.132812 10.75 -51.90625 7.3125 C -54.320312 4.320312 -55.894531 1.175781 -56.625 -2.125 C -57.363281 -5.425781 -57.160156 -8.664062 -56.015625 -11.84375 L -50.796875 -10.265625 C -51.597656 -7.734375 -51.710938 -5.238281 -51.140625 -2.78125 C -50.578125 -0.332031 -49.460938 1.925781 -47.796875 4 C -45.773438 6.507812 -43.394531 8.3125 -40.65625 9.40625 C -37.914062 10.507812 -35.054688 10.785156 -32.078125 10.234375 C -29.109375 9.691406 -26.300781 8.351562 -23.65625 6.21875 C -20.96875 4.050781 -19.050781 1.582031 -17.90625 -1.1875 C -16.769531 -3.957031 -16.445312 -6.796875 -16.9375 -9.703125 C -17.4375 -12.617188 -18.695312 -15.332031 -20.71875 -17.84375 C -22.382812 -19.914062 -24.347656 -21.492188 -26.609375 -22.578125 C -28.867188 -23.671875 -31.316406 -24.097656 -33.953125 -23.859375 L -34.421875 -29.265625 C -31.066406 -29.710938 -27.847656 -29.21875 -24.765625 -27.78125 C -21.679688 -26.34375 -18.945312 -24.148438 -16.5625 -21.203125 Z M -16.5625 -21.203125 "/></g></g></g><g fill="#000000" fill-opacity="1"><g transform="translate(244.268184, 510.362216)"><g><path d="M -17.484375 -26.828125 C -16.054688 -26.316406 -14.707031 -25.453125 -13.4375 -24.234375 C -12.175781 -23.015625 -11.117188 -21.609375 -10.265625 -20.015625 C -8.285156 -16.335938 -7.753906 -12.960938 -8.671875 -9.890625 C -9.597656 -6.816406 -11.878906 -4.304688 -15.515625 -2.359375 L -39.296875 10.40625 L -35.53125 17.4375 L -40.015625 19.84375 L -43.78125 12.8125 L -52.390625 17.4375 L -55.25 12.125 L -46.640625 7.5 L -53.0625 -4.46875 L -48.578125 -6.875 L -42.15625 5.09375 L -18.6875 -7.5 C -16.332031 -8.757812 -14.859375 -10.300781 -14.265625 -12.125 C -13.671875 -13.957031 -13.960938 -15.972656 -15.140625 -18.171875 C -15.734375 -19.253906 -16.476562 -20.210938 -17.375 -21.046875 C -18.269531 -21.890625 -19.242188 -22.515625 -20.296875 -22.921875 Z M -17.484375 -26.828125 "/></g></g></g><g fill="#000000" fill-opacity="1"><g transform="translate(229.831016, 482.856734)"><g><path d="M -2.890625 -8.53125 C -2.441406 -7.363281 -2.476562 -6.207031 -3 -5.0625 C -3.519531 -3.914062 -4.382812 -3.109375 -5.59375 -2.640625 C -6.8125 -2.160156 -7.988281 -2.164062 -9.125 -2.65625 C -10.257812 -3.15625 -11.050781 -3.988281 -11.5 -5.15625 C -11.957031 -6.3125 -11.941406 -7.46875 -11.453125 -8.625 C -10.972656 -9.789062 -10.125 -10.613281 -8.90625 -11.09375 C -7.695312 -11.5625 -6.503906 -11.539062 -5.328125 -11.03125 C -4.160156 -10.519531 -3.347656 -9.6875 -2.890625 -8.53125 Z M -2.890625 -8.53125 "/></g></g></g><g fill="#000000" fill-opacity="1"><g transform="translate(222.337463, 472.073784)"><g><path d="M -68.921875 -47.953125 L -10.4375 -58.40625 L -9.53125 -53.3125 L -50.265625 -7.21875 L -2.8125 -15.703125 L -1.703125 -9.515625 L -60.1875 0.9375 L -61.09375 -4.171875 L -20.375 -50.328125 L -67.828125 -41.84375 Z M -68.921875 -47.953125 "/></g></g></g><g fill="#000000" fill-opacity="1"><g transform="translate(211.570843, 411.616926)"><g><path d="M 3.078125 -26.484375 C 2.648438 -22.203125 1.296875 -18.441406 -0.984375 -15.203125 C -3.273438 -11.960938 -6.234375 -9.53125 -9.859375 -7.90625 C -13.492188 -6.28125 -17.484375 -5.679688 -21.828125 -6.109375 C -26.160156 -6.546875 -29.945312 -7.921875 -33.1875 -10.234375 C -36.425781 -12.546875 -38.828125 -15.515625 -40.390625 -19.140625 C -41.960938 -22.773438 -42.535156 -26.734375 -42.109375 -31.015625 C -41.679688 -35.273438 -40.335938 -39.023438 -38.078125 -42.265625 C -35.828125 -45.515625 -32.882812 -47.9375 -29.25 -49.53125 C -25.625 -51.132812 -21.644531 -51.71875 -17.3125 -51.28125 C -12.96875 -50.851562 -9.175781 -49.492188 -5.9375 -47.203125 C -2.695312 -44.921875 -0.28125 -41.960938 1.3125 -38.328125 C 2.914062 -34.691406 3.503906 -30.742188 3.078125 -26.484375 Z M -2.234375 -27.015625 C -1.921875 -30.160156 -2.359375 -33.054688 -3.546875 -35.703125 C -4.734375 -38.359375 -6.582031 -40.519531 -9.09375 -42.1875 C -11.601562 -43.863281 -14.546875 -44.867188 -17.921875 -45.203125 C -21.296875 -45.546875 -24.375 -45.144531 -27.15625 -44 C -29.945312 -42.863281 -32.179688 -41.113281 -33.859375 -38.75 C -35.546875 -36.382812 -36.546875 -33.628906 -36.859375 -30.484375 C -37.171875 -27.316406 -36.738281 -24.410156 -35.5625 -21.765625 C -34.382812 -19.117188 -32.539062 -16.945312 -30.03125 -15.25 C -27.53125 -13.550781 -24.59375 -12.53125 -21.21875 -12.1875 C -17.84375 -11.851562 -14.757812 -12.269531 -11.96875 -13.4375 C -9.175781 -14.601562 -6.929688 -16.363281 -5.234375 -18.71875 C -3.546875 -21.082031 -2.546875 -23.847656 -2.234375 -27.015625 Z M -2.234375 -27.015625 "/></g></g></g><g fill="#000000" fill-opacity="1"><g transform="translate(215.070739, 365.306123)"><g><path d="M -42.28125 -67.78125 L 16.875 -46.15625 L 14.890625 -40.734375 L 6.59375 -43.765625 C 8.800781 -41.035156 10.132812 -38.003906 10.59375 -34.671875 C 11.0625 -31.335938 10.65625 -27.914062 9.375 -24.40625 C 7.925781 -20.476562 5.71875 -17.242188 2.75 -14.703125 C -0.207031 -12.171875 -3.640625 -10.597656 -7.546875 -9.984375 C -11.453125 -9.367188 -15.476562 -9.820312 -19.625 -11.34375 C -23.757812 -12.851562 -27.117188 -15.101562 -29.703125 -18.09375 C -32.285156 -21.082031 -33.882812 -24.5 -34.5 -28.34375 C -35.125 -32.1875 -34.710938 -36.070312 -33.265625 -40 C -32.023438 -43.40625 -30.195312 -46.21875 -27.78125 -48.4375 C -25.375 -50.65625 -22.5 -52.144531 -19.15625 -52.90625 L -44.359375 -62.109375 Z M 4.53125 -26.71875 C 5.59375 -29.632812 5.878906 -32.523438 5.390625 -35.390625 C 4.898438 -38.253906 3.65625 -40.820312 1.65625 -43.09375 C -0.34375 -45.363281 -2.9375 -47.082031 -6.125 -48.25 C -9.3125 -49.414062 -12.398438 -49.773438 -15.390625 -49.328125 C -18.390625 -48.890625 -21 -47.734375 -23.21875 -45.859375 C -25.4375 -43.984375 -27.078125 -41.585938 -28.140625 -38.671875 C -29.234375 -35.691406 -29.535156 -32.769531 -29.046875 -29.90625 C -28.554688 -27.050781 -27.3125 -24.488281 -25.3125 -22.21875 C -23.3125 -19.957031 -20.71875 -18.242188 -17.53125 -17.078125 C -14.34375 -15.910156 -11.25 -15.546875 -8.25 -15.984375 C -5.257812 -16.421875 -2.65625 -17.570312 -0.4375 -19.4375 C 1.78125 -21.3125 3.4375 -23.738281 4.53125 -26.71875 Z M 4.53125 -26.71875 "/></g></g></g><g fill="#000000" fill-opacity="1"><g transform="translate(232.087899, 317.456096)"><g><path d="M 9.65625 -50.609375 L -11.34375 -19.71875 C -7.320312 -17.382812 -3.222656 -16.742188 0.953125 -17.796875 C 5.128906 -18.859375 8.601562 -21.429688 11.375 -25.515625 C 12.9375 -27.804688 13.957031 -30.191406 14.4375 -32.671875 C 14.925781 -35.148438 14.851562 -37.628906 14.21875 -40.109375 L 19.359375 -40.71875 C 20.210938 -37.75 20.316406 -34.679688 19.671875 -31.515625 C 19.023438 -28.359375 17.703125 -25.3125 15.703125 -22.375 C 13.128906 -18.582031 10.039062 -15.769531 6.4375 -13.9375 C 2.832031 -12.113281 -0.945312 -11.351562 -4.90625 -11.65625 C -8.863281 -11.957031 -12.648438 -13.332031 -16.265625 -15.78125 C -19.867188 -18.226562 -22.566406 -21.207031 -24.359375 -24.71875 C -26.148438 -28.226562 -26.910156 -31.890625 -26.640625 -35.703125 C -26.367188 -39.515625 -25.070312 -43.128906 -22.75 -46.546875 C -20.425781 -49.960938 -17.546875 -52.488281 -14.109375 -54.125 C -10.679688 -55.769531 -7.023438 -56.398438 -3.140625 -56.015625 C 0.742188 -55.628906 4.507812 -54.195312 8.15625 -51.71875 Z M -18.46875 -43.640625 C -20.882812 -40.085938 -21.773438 -36.332031 -21.140625 -32.375 C -20.515625 -28.425781 -18.488281 -25.050781 -15.0625 -22.25 L 2.734375 -48.4375 C -1.140625 -50.582031 -5.03125 -51.21875 -8.9375 -50.34375 C -12.84375 -49.476562 -16.019531 -47.242188 -18.46875 -43.640625 Z M -18.46875 -43.640625 "/></g></g></g><g fill="#000000" fill-opacity="1"><g transform="translate(259.157888, 279.318816)"><g><path d="M 6.46875 -6.28125 C 5.613281 -5.363281 4.554688 -4.894531 3.296875 -4.875 C 2.035156 -4.863281 0.929688 -5.300781 -0.015625 -6.1875 C -0.960938 -7.082031 -1.457031 -8.144531 -1.5 -9.375 C -1.539062 -10.613281 -1.132812 -11.691406 -0.28125 -12.609375 C 0.570312 -13.515625 1.628906 -14 2.890625 -14.0625 C 4.148438 -14.125 5.253906 -13.707031 6.203125 -12.8125 C 7.148438 -11.925781 7.644531 -10.84375 7.6875 -9.5625 C 7.726562 -8.28125 7.320312 -7.1875 6.46875 -6.28125 Z M 6.46875 -6.28125 "/></g></g></g><g fill="#000000" fill-opacity="1"><g transform="translate(267.111877, 268.187928)"><g><path d="M -20.21875 -52.546875 L -6 -34.015625 L 18.375 -52.71875 L 21.6875 -48.40625 L -2.6875 -29.703125 L 12.65625 -9.71875 L 7.671875 -5.890625 L -28.5 -53.015625 L 3.828125 -77.828125 L 7.125 -73.53125 Z M -20.21875 -52.546875 "/></g></g></g><g fill="#000000" fill-opacity="1"><g transform="translate(303.681808, 238.764319)"><g><path d="M 27.203125 -60.15625 L 44.734375 -19.109375 L 39.40625 -16.84375 L 36.203125 -24.328125 C 35.816406 -21.210938 34.644531 -18.421875 32.6875 -15.953125 C 30.726562 -13.484375 28.113281 -11.550781 24.84375 -10.15625 C 19.476562 -7.863281 14.609375 -7.550781 10.234375 -9.21875 C 5.859375 -10.894531 2.441406 -14.617188 -0.015625 -20.390625 L -10.1875 -44.1875 L -4.65625 -46.546875 L 5.28125 -23.28125 C 7.113281 -18.976562 9.578125 -16.160156 12.671875 -14.828125 C 15.765625 -13.492188 19.289062 -13.671875 23.25 -15.359375 C 27.5625 -17.203125 30.40625 -19.972656 31.78125 -23.671875 C 33.164062 -27.367188 32.859375 -31.5625 30.859375 -36.25 L 21.65625 -57.78125 Z M 27.203125 -60.15625 "/></g></g></g><g fill="#000000" fill-opacity="1"><g transform="translate(351.863522, 219.361272)"><g><path d="M -5.703125 -63.28125 L 0.15625 -64.609375 L 14.0625 -3.1875 L 8.203125 -1.859375 Z M -5.703125 -63.28125 "/></g></g></g><g fill="#000000" fill-opacity="1"><g transform="translate(371.233322, 214.81811)"><g><path d="M 0.84375 -63.53125 L 6.8125 -64.25 L 14.3125 -1.71875 L 8.34375 -1 Z M 0.84375 -63.53125 "/></g></g></g><g fill="#000000" fill-opacity="1"><g transform="translate(389.762581, 211.611848)"><g><path d="M 20.359375 0.953125 C 16.734375 0.859375 13.28125 0.242188 10 -0.890625 C 6.71875 -2.023438 4.164062 -3.40625 2.34375 -5.03125 L 5.1875 -9.71875 C 7.007812 -8.195312 9.320312 -6.929688 12.125 -5.921875 C 14.9375 -4.921875 17.867188 -4.378906 20.921875 -4.296875 C 24.984375 -4.191406 28.007812 -4.75 30 -5.96875 C 31.988281 -7.1875 33.007812 -8.957031 33.0625 -11.28125 C 33.113281 -12.914062 32.609375 -14.210938 31.546875 -15.171875 C 30.492188 -16.140625 29.15625 -16.882812 27.53125 -17.40625 C 25.90625 -17.9375 23.75 -18.457031 21.0625 -18.96875 C 17.457031 -19.757812 14.554688 -20.53125 12.359375 -21.28125 C 10.171875 -22.039062 8.320312 -23.289062 6.8125 -25.03125 C 5.300781 -26.769531 4.582031 -29.140625 4.65625 -32.140625 C 4.757812 -35.878906 6.398438 -38.894531 9.578125 -41.1875 C 12.753906 -43.476562 17.113281 -44.550781 22.65625 -44.40625 C 25.53125 -44.332031 28.398438 -43.875 31.265625 -43.03125 C 34.128906 -42.1875 36.484375 -41.117188 38.328125 -39.828125 L 35.5625 -35.0625 C 31.945312 -37.707031 27.597656 -39.097656 22.515625 -39.234375 C 18.671875 -39.335938 15.753906 -38.734375 13.765625 -37.421875 C 11.773438 -36.109375 10.753906 -34.347656 10.703125 -32.140625 C 10.648438 -30.441406 11.160156 -29.070312 12.234375 -28.03125 C 13.316406 -26.988281 14.671875 -26.203125 16.296875 -25.671875 C 17.929688 -25.148438 20.175781 -24.59375 23.03125 -24 C 26.582031 -23.226562 29.421875 -22.476562 31.546875 -21.75 C 33.679688 -21.019531 35.488281 -19.816406 36.96875 -18.140625 C 38.457031 -16.460938 39.164062 -14.179688 39.09375 -11.296875 C 38.988281 -7.390625 37.28125 -4.332031 33.96875 -2.125 C 30.65625 0.0820312 26.117188 1.109375 20.359375 0.953125 Z M 20.359375 0.953125 "/></g></g></g><g fill="#000000" fill-opacity="1"><g transform="translate(426.420476, 212.463533)"><g><path d="M 31.8125 3.609375 C 30.507812 4.390625 28.984375 4.878906 27.234375 5.078125 C 25.492188 5.273438 23.738281 5.191406 21.96875 4.828125 C 17.875 4.003906 14.9375 2.265625 13.15625 -0.390625 C 11.375 -3.046875 10.890625 -6.398438 11.703125 -10.453125 L 17.03125 -36.90625 L 9.203125 -38.484375 L 10.203125 -43.484375 L 18.03125 -41.90625 L 19.953125 -51.484375 L 25.875 -50.296875 L 23.953125 -40.71875 L 37.265625 -38.046875 L 36.265625 -33.046875 L 22.953125 -35.71875 L 17.703125 -9.609375 C 17.171875 -6.992188 17.421875 -4.875 18.453125 -3.25 C 19.484375 -1.632812 21.21875 -0.582031 23.65625 -0.09375 C 24.875 0.15625 26.085938 0.195312 27.296875 0.03125 C 28.515625 -0.125 29.617188 -0.476562 30.609375 -1.03125 Z M 31.8125 3.609375 "/></g></g></g><g fill="#000000" fill-opacity="1"><g transform="translate(455.30373, 216.989112)"><g><path d="M 39.3125 -32.484375 C 44.707031 -30.265625 48.285156 -27.21875 50.046875 -23.34375 C 51.816406 -19.46875 51.617188 -14.890625 49.453125 -9.609375 L 38.9375 15.984375 L 33.609375 13.796875 L 36.25 7.359375 C 34.113281 8.992188 31.578125 9.910156 28.640625 10.109375 C 25.710938 10.316406 22.578125 9.734375 19.234375 8.359375 C 14.628906 6.460938 11.414062 3.859375 9.59375 0.546875 C 7.78125 -2.765625 7.613281 -6.226562 9.09375 -9.84375 C 10.539062 -13.34375 12.972656 -15.644531 16.390625 -16.75 C 19.804688 -17.851562 24.285156 -17.269531 29.828125 -15 L 42.953125 -9.609375 L 43.984375 -12.125 C 45.441406 -15.6875 45.554688 -18.800781 44.328125 -21.46875 C 43.109375 -24.144531 40.585938 -26.269531 36.765625 -27.84375 C 34.148438 -28.90625 31.457031 -29.5 28.6875 -29.625 C 25.925781 -29.757812 23.375 -29.421875 21.03125 -28.609375 L 20.21875 -33.8125 C 23.039062 -34.726562 26.113281 -35.066406 29.4375 -34.828125 C 32.769531 -34.597656 36.0625 -33.816406 39.3125 -32.484375 Z M 21.890625 4.3125 C 25.035156 5.601562 28.03125 5.988281 30.875 5.46875 C 33.71875 4.957031 36.25 3.566406 38.46875 1.296875 L 41.234375 -5.453125 L 28.265625 -10.78125 C 21.203125 -13.675781 16.664062 -12.664062 14.65625 -7.75 C 13.664062 -5.34375 13.800781 -3.066406 15.0625 -0.921875 C 16.320312 1.210938 18.597656 2.957031 21.890625 4.3125 Z M 21.890625 4.3125 "/></g></g></g><g fill="#000000" fill-opacity="1"><g transform="translate(496.182136, 233.179835)"><g><path d="M 21.796875 15.78125 C 18.179688 13.25 15.5 10.195312 13.75 6.625 C 12 3.0625 11.3125 -0.710938 11.6875 -4.703125 C 12.070312 -8.691406 13.515625 -12.472656 16.015625 -16.046875 C 18.515625 -19.617188 21.5625 -22.242188 25.15625 -23.921875 C 28.757812 -25.609375 32.535156 -26.242188 36.484375 -25.828125 C 40.441406 -25.410156 44.226562 -23.9375 47.84375 -21.40625 C 50.988281 -19.195312 53.375 -16.609375 55 -13.640625 C 56.625 -10.671875 57.328125 -7.503906 57.109375 -4.140625 L 51.671875 -4.203125 C 51.722656 -6.859375 51.140625 -9.285156 49.921875 -11.484375 C 48.703125 -13.691406 47.003906 -15.5625 44.828125 -17.09375 C 42.179688 -18.945312 39.390625 -20.019531 36.453125 -20.3125 C 33.523438 -20.601562 30.707031 -20.070312 28 -18.71875 C 25.289062 -17.375 22.960938 -15.3125 21.015625 -12.53125 C 19.035156 -9.695312 17.878906 -6.789062 17.546875 -3.8125 C 17.222656 -0.832031 17.695312 1.984375 18.96875 4.640625 C 20.25 7.296875 22.210938 9.550781 24.859375 11.40625 C 27.035156 12.9375 29.359375 13.910156 31.828125 14.328125 C 34.296875 14.742188 36.769531 14.472656 39.25 13.515625 L 41.1875 18.578125 C 38.09375 19.941406 34.863281 20.359375 31.5 19.828125 C 28.132812 19.304688 24.898438 17.957031 21.796875 15.78125 Z M 21.796875 15.78125 "/></g></g></g><g fill="#000000" fill-opacity="1"><g transform="translate(530.793846, 256.370067)"><g><path d="M 33.359375 3.453125 L 19.125 2.140625 L 9.6875 10.6875 L 5.640625 6.234375 L 52.328125 -36.046875 L 56.375 -31.59375 L 24.71875 -2.921875 L 60.671875 0.484375 L 65.671875 6.015625 L 39.328125 4.109375 L 33.78125 37.3125 L 28.828125 31.84375 Z M 33.359375 3.453125 "/></g></g></g><g fill="#000000" fill-opacity="1"><g transform="translate(561.321323, 291.487371)"><g><path d="M 4.5625 7.765625 C 3.882812 6.722656 3.6875 5.582031 3.96875 4.34375 C 4.25 3.113281 4.9375 2.144531 6.03125 1.4375 C 7.113281 0.726562 8.257812 0.5 9.46875 0.75 C 10.6875 1.007812 11.632812 1.660156 12.3125 2.703125 C 13 3.734375 13.222656 4.867188 12.984375 6.109375 C 12.742188 7.347656 12.082031 8.320312 11 9.03125 C 9.90625 9.738281 8.726562 9.960938 7.46875 9.703125 C 6.21875 9.441406 5.25 8.796875 4.5625 7.765625 Z M 4.5625 7.765625 "/></g></g></g><g fill="#000000" fill-opacity="1"><g transform="translate(570.913736, 300.410556)"><g><path d="M 58.765625 -13.0625 L 67.734375 9.390625 C 70.066406 15.222656 70.957031 20.835938 70.40625 26.234375 C 69.851562 31.640625 67.976562 36.410156 64.78125 40.546875 C 61.59375 44.691406 57.316406 47.835938 51.953125 49.984375 C 46.597656 52.117188 41.335938 52.785156 36.171875 51.984375 C 31.015625 51.191406 26.375 49.023438 22.25 45.484375 C 18.125 41.953125 14.894531 37.269531 12.5625 31.4375 L 3.59375 8.984375 Z M 17.484375 29.125 C 19.410156 33.945312 22.054688 37.789062 25.421875 40.65625 C 28.796875 43.519531 32.578125 45.269531 36.765625 45.90625 C 40.953125 46.550781 45.25 45.992188 49.65625 44.234375 C 54.070312 42.460938 57.578125 39.898438 60.171875 36.546875 C 62.765625 33.203125 64.289062 29.332031 64.75 24.9375 C 65.21875 20.539062 64.488281 15.929688 62.5625 11.109375 L 56.046875 -5.21875 L 10.96875 12.796875 Z M 17.484375 29.125 "/></g></g></g><g fill="#000000" fill-opacity="1"><g transform="translate(593.878627, 358.576471)"><g><path d="M 25.3125 44.859375 L 21.390625 7.71875 C 16.804688 8.539062 13.257812 10.707031 10.75 14.21875 C 8.25 17.726562 7.257812 21.929688 7.78125 26.828125 C 8.070312 29.585938 8.832031 32.066406 10.0625 34.265625 C 11.289062 36.472656 12.953125 38.316406 15.046875 39.796875 L 11.53125 43.59375 C 8.957031 41.875 6.894531 39.597656 5.34375 36.765625 C 3.789062 33.941406 2.828125 30.757812 2.453125 27.21875 C 1.972656 22.664062 2.515625 18.523438 4.078125 14.796875 C 5.648438 11.078125 8.046875 8.050781 11.265625 5.71875 C 14.484375 3.394531 18.265625 2.003906 22.609375 1.546875 C 26.941406 1.085938 30.925781 1.617188 34.5625 3.140625 C 38.195312 4.660156 41.140625 6.960938 43.390625 10.046875 C 45.648438 13.128906 47 16.726562 47.4375 20.84375 C 47.875 24.945312 47.304688 28.734375 45.734375 32.203125 C 44.171875 35.671875 41.785156 38.507812 38.578125 40.71875 C 35.367188 42.9375 31.570312 44.28125 27.1875 44.75 Z M 42.296875 21.390625 C 41.847656 17.109375 40.101562 13.660156 37.0625 11.046875 C 34.03125 8.441406 30.296875 7.175781 25.859375 7.25 L 29.1875 38.734375 C 33.539062 37.867188 36.925781 35.84375 39.34375 32.65625 C 41.769531 29.476562 42.753906 25.722656 42.296875 21.390625 Z M 42.296875 21.390625 "/></g></g></g><g fill="#000000" fill-opacity="1"><g transform="translate(599.014131, 403.451176)"><g><path d="M 39.078125 50.734375 L -2.984375 25.890625 L -2.28125 19.734375 L 44.328125 5.1875 L 43.609375 11.421875 L 3.9375 23.703125 L 39.765625 44.8125 Z M 39.078125 50.734375 "/></g></g></g><g fill="#000000" fill-opacity="1"><g transform="translate(595.380869, 443.271818)"><g><path d="M 3.765625 51.375 L 16.046875 16.109375 C 11.554688 14.898438 7.429688 15.347656 3.671875 17.453125 C -0.0859375 19.554688 -2.78125 22.9375 -4.40625 27.59375 C -5.3125 30.207031 -5.675781 32.769531 -5.5 35.28125 C -5.332031 37.800781 -4.613281 40.179688 -3.34375 42.421875 L -8.15625 44.34375 C -9.75 41.695312 -10.644531 38.765625 -10.84375 35.546875 C -11.039062 32.328125 -10.550781 29.035156 -9.375 25.671875 C -7.863281 21.335938 -5.601562 17.820312 -2.59375 15.125 C 0.40625 12.425781 3.859375 10.707031 7.765625 9.96875 C 11.671875 9.238281 15.679688 9.59375 19.796875 11.03125 C 23.910156 12.457031 27.285156 14.632812 29.921875 17.5625 C 32.554688 20.488281 34.238281 23.832031 34.96875 27.59375 C 35.695312 31.351562 35.382812 35.179688 34.03125 39.078125 C 32.675781 42.972656 30.546875 46.15625 27.640625 48.625 C 24.742188 51.09375 21.367188 52.644531 17.515625 53.28125 C 13.671875 53.914062 9.664062 53.507812 5.5 52.0625 Z M 29.140625 37.375 C 30.554688 33.3125 30.445312 29.457031 28.8125 25.8125 C 27.175781 22.164062 24.335938 19.425781 20.296875 17.59375 L 9.890625 47.484375 C 14.191406 48.566406 18.113281 48.179688 21.65625 46.328125 C 25.207031 44.472656 27.703125 41.488281 29.140625 37.375 Z M 29.140625 37.375 "/></g></g></g><g fill="#000000" fill-opacity="1"><g transform="translate(579.355111, 486.892496)"><g><path d="M 51.140625 37.71875 L 48.234375 43 L -6.953125 12.640625 L -4.046875 7.359375 Z M 51.140625 37.71875 "/></g></g></g><g fill="#000000" fill-opacity="1"><g transform="translate(572.124124, 503.604892)"><g><path d="M -16.984375 20.546875 C -14.296875 17.179688 -11.109375 14.757812 -7.421875 13.28125 C -3.742188 11.8125 0.0546875 11.378906 3.984375 11.984375 C 7.910156 12.597656 11.582031 14.269531 15 17 C 18.394531 19.71875 20.820312 22.929688 22.28125 26.640625 C 23.738281 30.347656 24.140625 34.144531 23.484375 38.03125 C 22.828125 41.925781 21.15625 45.554688 18.46875 48.921875 C 15.78125 52.265625 12.609375 54.6875 8.953125 56.1875 C 5.296875 57.6875 1.507812 58.117188 -2.40625 57.484375 C -6.320312 56.847656 -9.976562 55.171875 -13.375 52.453125 C -16.789062 49.722656 -19.234375 46.515625 -20.703125 42.828125 C -22.171875 39.148438 -22.585938 35.351562 -21.953125 31.4375 C -21.328125 27.519531 -19.671875 23.890625 -16.984375 20.546875 Z M -12.8125 23.890625 C -14.789062 26.359375 -16.003906 29.023438 -16.453125 31.890625 C -16.898438 34.753906 -16.523438 37.570312 -15.328125 40.34375 C -14.140625 43.113281 -12.21875 45.5625 -9.5625 47.6875 C -6.914062 49.8125 -4.113281 51.144531 -1.15625 51.6875 C 1.800781 52.238281 4.628906 51.984375 7.328125 50.921875 C 10.035156 49.867188 12.378906 48.109375 14.359375 45.640625 C 16.347656 43.160156 17.5625 40.484375 18 37.609375 C 18.4375 34.742188 18.066406 31.914062 16.890625 29.125 C 15.722656 26.34375 13.816406 23.890625 11.171875 21.765625 C 8.515625 19.640625 5.695312 18.3125 2.71875 17.78125 C -0.257812 17.25 -3.09375 17.515625 -5.78125 18.578125 C -8.476562 19.640625 -10.820312 21.410156 -12.8125 23.890625 Z M -12.8125 23.890625 "/></g></g></g><g fill="#000000" fill-opacity="1"><g transform="translate(543.990412, 540.55741)"><g><path d="M 1.953125 54.828125 C -1.390625 57.347656 -4.988281 58.867188 -8.84375 59.390625 C -12.695312 59.921875 -16.429688 59.382812 -20.046875 57.78125 C -23.660156 56.175781 -26.789062 53.613281 -29.4375 50.09375 C -32.125 46.507812 -33.734375 42.757812 -34.265625 38.84375 C -34.804688 34.9375 -34.300781 31.210938 -32.75 27.671875 C -31.195312 24.128906 -28.726562 21.082031 -25.34375 18.53125 C -22.445312 16.351562 -19.382812 14.988281 -16.15625 14.4375 C -12.925781 13.894531 -9.703125 14.210938 -6.484375 15.390625 L -21.4375 -4.484375 L -16.625 -8.109375 L 20.125 40.71875 L 15.515625 44.1875 L 10.203125 37.140625 C 10.523438 40.585938 9.976562 43.835938 8.5625 46.890625 C 7.144531 49.941406 4.941406 52.585938 1.953125 54.828125 Z M -21.8125 22.5625 C -24.289062 24.425781 -26.113281 26.695312 -27.28125 29.375 C -28.445312 32.0625 -28.804688 34.898438 -28.359375 37.890625 C -27.910156 40.890625 -26.664062 43.75 -24.625 46.46875 C -22.582031 49.175781 -20.191406 51.144531 -17.453125 52.375 C -14.722656 53.613281 -11.898438 54.050781 -8.984375 53.6875 C -6.066406 53.332031 -3.367188 52.222656 -0.890625 50.359375 C 1.648438 48.453125 3.484375 46.15625 4.609375 43.46875 C 5.742188 40.78125 6.09375 37.953125 5.65625 34.984375 C 5.226562 32.015625 3.992188 29.175781 1.953125 26.46875 C -0.0859375 23.75 -2.484375 21.757812 -5.234375 20.5 C -7.984375 19.238281 -10.796875 18.789062 -13.671875 19.15625 C -16.554688 19.519531 -19.269531 20.65625 -21.8125 22.5625 Z M -21.8125 22.5625 "/></g></g></g><g fill="#000000" fill-opacity="1"><g transform="translate(503.677461, 571.447527)"><g><path d="M -35.640625 37.203125 L -1.21875 22.703125 C -3.332031 18.554688 -6.425781 15.789062 -10.5 14.40625 C -14.582031 13.03125 -18.894531 13.296875 -23.4375 15.203125 C -25.988281 16.273438 -28.140625 17.71875 -29.890625 19.53125 C -31.648438 21.351562 -32.9375 23.484375 -33.75 25.921875 L -38.390625 23.625 C -37.492188 20.664062 -35.914062 18.035156 -33.65625 15.734375 C -31.394531 13.441406 -28.625 11.601562 -25.34375 10.21875 C -21.113281 8.4375 -16.992188 7.757812 -12.984375 8.1875 C -8.972656 8.625 -5.382812 10.046875 -2.21875 12.453125 C 0.945312 14.859375 3.378906 18.070312 5.078125 22.09375 C 6.765625 26.101562 7.398438 30.066406 6.984375 33.984375 C 6.578125 37.898438 5.222656 41.382812 2.921875 44.4375 C 0.617188 47.5 -2.4375 49.832031 -6.25 51.4375 C -10.050781 53.039062 -13.835938 53.59375 -17.609375 53.09375 C -21.378906 52.601562 -24.785156 51.140625 -27.828125 48.703125 C -30.878906 46.265625 -33.257812 43.015625 -34.96875 38.953125 Z M -8.25 46.671875 C -4.28125 45.003906 -1.488281 42.34375 0.125 38.6875 C 1.738281 35.03125 1.875 31.085938 0.53125 26.859375 L -28.640625 39.140625 C -26.566406 43.066406 -23.648438 45.722656 -19.890625 47.109375 C -16.140625 48.503906 -12.257812 48.359375 -8.25 46.671875 Z M -8.25 46.671875 "/></g></g></g><g fill="#000000" fill-opacity="1"><g transform="translate(461.33989, 588.949203)"><g><path d="M -6.546875 38.046875 C -7.316406 41.273438 -8.921875 43.921875 -11.359375 45.984375 C -13.796875 48.046875 -17.03125 49.492188 -21.0625 50.328125 L -22.25 44.59375 L -20.828125 44.40625 C -16.234375 43.445312 -12.925781 41.28125 -10.90625 37.90625 C -8.894531 34.539062 -8.421875 30.304688 -9.484375 25.203125 L -14.125 2.9375 L -8.234375 1.71875 L 0.875 45.421875 L -4.765625 46.59375 Z M -6.546875 38.046875 "/></g></g></g><g fill="#000000" fill-opacity="1"><g transform="translate(431.254438, 594.940104)"><g><path d="M -9 0.359375 C -7.75 0.253906 -6.648438 0.613281 -5.703125 1.4375 C -4.753906 2.257812 -4.222656 3.320312 -4.109375 4.625 C -3.992188 5.914062 -4.332031 7.035156 -5.125 7.984375 C -5.925781 8.941406 -6.953125 9.472656 -8.203125 9.578125 C -9.429688 9.691406 -10.535156 9.347656 -11.515625 8.546875 C -12.492188 7.753906 -13.039062 6.710938 -13.15625 5.421875 C -13.269531 4.117188 -12.910156 2.976562 -12.078125 2 C -11.253906 1.019531 -10.226562 0.472656 -9 0.359375 Z M -9 0.359375 "/></g></g></g></svg>